<svg width="816" height="522" viewBox="0 0 816 522" fill="none" xmlns="http://www.w3.org/2000/svg">
<g opacity="0.5">
<path d="M836.256 369.112C851.845 369.99 857.346 377.014 850.469 390.622C847.718 395.89 844.051 401.158 839.007 404.231C822.961 414.766 806.456 424.424 790.409 434.081C774.821 443.3 758.316 445.934 740.435 439.788C731.724 436.715 731.266 431.886 735.392 426.619C739.518 421.351 744.562 416.522 750.063 413.01C772.529 399.402 795.452 386.671 818.376 373.941C823.878 370.868 830.296 370.429 836.256 369.112Z" fill="white"/>
<path d="M398.873 387.106C400.707 387.545 405.75 387.984 410.335 389.74C413.544 391.057 417.212 395.008 417.212 397.642C417.212 400.714 414.461 405.543 411.252 406.86C384.661 418.274 357.611 429.687 330.102 439.345C322.308 441.979 312.222 438.906 303.052 438.028C297.092 437.589 295.716 433.638 298.926 428.809C301.218 425.297 303.969 421.786 307.178 419.152C328.727 401.153 366.322 387.106 398.873 387.106Z" fill="white"/>
<path d="M454.808 219.86C458.017 222.055 462.602 223.811 463.06 226.006C463.519 229.079 461.226 233.469 458.475 235.664C440.136 249.272 421.797 262.881 402.083 275.172C390.621 282.635 377.325 288.342 364.488 294.048C360.362 295.804 355.319 297.121 350.734 297.56C341.106 297.999 337.897 293.609 342.94 286.147C349.359 277.367 357.153 269.026 365.864 263.32C383.286 251.467 402.083 240.931 420.881 231.274C431.425 226.445 442.887 223.811 454.808 219.86Z" fill="white"/>
<path d="M655.16 58.3068C644.615 86.8407 560.256 120.203 536.874 105.278C543.751 78.061 626.735 45.1373 655.16 58.3068Z" fill="white"/>
<path d="M597.391 262.877C609.311 246.634 623.524 237.416 638.195 229.075C652.866 220.734 667.996 212.833 683.584 205.809C689.544 203.175 700.548 201.419 703.299 204.492C709.259 210.638 706.508 219.856 700.548 226.441C679.458 248.829 652.866 261.999 622.149 265.95C614.813 266.828 607.478 264.194 597.391 262.877Z" fill="white"/>
<path d="M82.9844 334.43C90.32 322.577 101.782 316.431 114.161 314.236C142.586 308.53 171.47 308.969 199.437 317.309C203.105 318.626 205.856 322.138 209.065 324.772C205.856 327.845 203.105 332.674 199.437 333.552C186.141 337.064 172.387 339.698 158.633 341.014C133.875 344.087 108.201 348.038 82.9844 334.43Z" fill="white"/>
<path d="M112.786 505.636C107.284 503.88 101.324 502.124 94.9055 499.929C98.1148 494.662 99.9487 488.516 104.075 484.565C123.331 465.689 146.255 452.519 174.68 450.324C180.64 449.885 186.6 453.836 192.561 455.592C190.268 461.738 189.81 470.078 185.225 473.151C164.594 488.516 142.128 501.685 112.786 505.636Z" fill="white"/>
<path d="M780.781 202.733C789.492 194.832 797.745 185.613 807.831 179.906C827.545 169.371 848.635 161.03 868.808 151.372C879.812 146.105 887.147 150.933 893.566 157.957C894.941 159.713 894.483 165.42 893.107 166.737C861.931 186.052 831.672 208.879 791.326 207.562C789.034 207.562 786.283 206.684 783.99 206.245C782.615 204.928 781.698 204.05 780.781 202.733Z" fill="white"/>
<path d="M309.011 67.9702C312.679 69.7261 320.473 72.3601 320.473 74.116C320.015 80.7008 318.639 89.0415 314.054 92.9923C298.925 105.284 282.878 117.136 265.915 127.233C258.121 132.062 247.576 134.257 238.406 136.013C231.071 137.33 226.486 133.379 231.071 126.355C237.489 116.258 243.908 105.723 253.077 98.2601C264.998 88.6025 278.752 81.5787 292.506 73.677C296.632 71.0431 302.134 70.1651 309.011 67.9702Z" fill="white"/>
<path d="M366.78 141.716C377.325 131.619 388.328 125.474 401.165 121.962C418.587 117.572 436.468 113.182 453.89 109.231C455.265 108.792 456.641 108.353 458.016 108.353C466.269 107.914 475.438 107.475 478.189 116.694C480.94 125.474 474.98 132.058 466.727 134.253C446.554 140.399 426.382 146.106 405.75 150.496C393.371 152.691 380.076 150.057 366.78 141.716Z" fill="white"/>
<path d="M251.244 236.537C242.533 234.781 233.363 233.903 224.652 231.269C215.483 228.635 214.107 221.611 221.902 217.222C231.529 211.515 242.533 206.686 253.536 204.93C272.792 201.418 292.507 200.54 312.221 198.784C315.889 198.345 322.307 199.662 322.307 201.418C323.224 205.369 321.849 210.198 320.015 214.149C319.098 215.905 316.347 217.661 314.055 218.539C294.799 227.318 274.626 236.537 251.244 236.537Z" fill="white"/>
<path d="M405.75 483.245C409.876 478.416 412.627 471.832 417.67 468.32C436.009 456.906 455.265 445.493 474.979 435.835C480.481 433.201 488.733 435.396 495.61 435.396C495.152 441.981 496.069 448.566 494.694 455.15C494.235 458.662 490.567 461.735 487.816 464.369C465.351 484.123 437.384 486.757 408.959 486.757C407.583 485.44 406.666 484.562 405.75 483.245Z" fill="white"/>
<path d="M726.224 103.526C717.054 111.866 709.719 122.402 699.174 127.67C679.918 136.888 659.745 146.546 636.821 144.351C633.153 143.912 629.944 142.156 626.276 140.839C627.652 137.327 628.11 132.499 630.402 130.743C641.406 123.28 652.409 116.256 664.788 110.549C676.25 105.282 688.629 101.77 701.008 98.2578C708.802 96.0629 717.513 95.6239 726.224 103.526Z" fill="white"/>
<path d="M654.244 413.009C639.114 440.226 601.52 457.786 572.636 452.957C561.632 451.201 559.798 446.811 567.134 439.348C589.141 416.96 616.191 407.742 647.826 410.376C649.659 410.376 651.493 411.692 654.244 413.009Z" fill="white"/>
<path d="M198.519 408.623C201.27 394.575 214.107 389.746 225.569 384.04C240.699 376.577 255.829 369.114 271.875 362.968C278.294 360.335 291.59 359.457 293.423 362.529C298.467 370.87 288.839 375.699 282.42 379.65C270.041 387.551 257.204 395.453 243.45 401.16C229.696 406.867 214.566 409.062 200.353 413.012C199.895 411.696 198.978 409.94 198.519 408.623Z" fill="white"/>
<path d="M425.465 20.122C430.967 23.1948 438.303 26.7067 445.638 30.6575C439.678 35.4864 434.176 42.0711 427.299 45.583C411.711 53.0457 395.206 58.7525 378.701 64.4593C374.575 65.7762 369.99 66.6542 365.864 65.7762C358.07 64.4593 354.86 57.4356 360.821 53.0457C379.159 38.9983 398.415 25.3898 425.465 20.122Z" fill="white"/>
<path d="M686.794 331.357C712.01 309.407 739.518 295.799 771.611 288.775C771.611 316.87 717.97 344.087 686.794 331.357Z" fill="white"/>
<path d="M424.549 351.992C433.718 348.48 442.429 343.212 451.599 341.456C470.396 337.944 490.11 336.627 509.366 334.871C512.117 334.432 517.619 336.188 517.619 337.066C517.619 340.578 517.16 344.968 514.868 347.163C510.742 350.675 505.24 353.748 499.738 355.064C475.439 360.332 450.682 360.771 425.924 355.942C425.466 354.625 425.007 353.309 424.549 351.992Z" fill="white"/>
<path d="M593.265 517.048C599.226 512.219 603.81 506.512 609.771 504.317C625.817 498.171 642.322 492.465 658.827 488.075C668.914 485.441 674.415 492.026 667.997 499.488C660.661 507.829 651.033 516.609 640.488 519.682C627.651 523.194 612.98 520.56 599.226 520.121C597.85 520.121 596.933 519.243 593.265 517.048Z" fill="white"/>
<path d="M66.0215 254.099C76.108 240.929 85.7359 227.76 96.2808 214.59C100.866 208.445 107.743 208.445 113.703 212.395C120.58 217.224 117.829 223.809 112.786 227.76C104.533 234.345 95.8224 240.49 86.6529 246.197C80.6927 249.709 73.8156 252.343 67.397 255.416C66.9385 254.977 66.48 254.538 66.0215 254.099Z" fill="white"/>
<path d="M551.545 3.87541C541.917 5.63136 532.748 8.26529 523.12 9.58225C521.286 10.0212 518.535 6.50935 516.242 4.75341C518.535 3.43645 520.369 0.802527 522.661 0.802527C531.831 0.363541 541.459 0.802526 551.087 0.802526C551.087 1.6805 551.087 2.55846 551.545 3.87541Z" fill="white"/>
<path d="M8.25256 402.915C6.87713 408.621 5.50171 414.328 4.12628 420.035C2.75085 419.596 1.37543 419.596 -4.18606e-08 419.157C1.37543 413.45 2.29238 407.743 3.6678 402.037C5.04323 402.476 6.87713 402.476 8.25256 402.915Z" fill="white"/>
</g>
</svg>
