<svg width="20" height="21" viewBox="0 0 20 21" fill="none" xmlns="http://www.w3.org/2000/svg">
<path d="M9.76891 5.25943C6.9974 5.25943 4.76189 7.49494 4.76189 10.2664C4.76189 13.038 6.9974 15.2735 9.76891 15.2735C12.5404 15.2735 14.7759 13.038 14.7759 10.2664C14.7759 7.49494 12.5404 5.25943 9.76891 5.25943ZM9.76891 13.5217C7.97789 13.5217 6.5137 12.0618 6.5137 10.2664C6.5137 8.47107 7.97353 7.01123 9.76891 7.01123C11.5643 7.01123 13.0241 8.47107 13.0241 10.2664C13.0241 12.0618 11.5599 13.5217 9.76891 13.5217ZM16.1486 5.05462C16.1486 5.70392 15.6257 6.22248 14.9807 6.22248C14.3314 6.22248 13.8129 5.69956 13.8129 5.05462C13.8129 4.40967 14.3358 3.88675 14.9807 3.88675C15.6257 3.88675 16.1486 4.40967 16.1486 5.05462ZM19.4648 6.23991C19.3907 4.67549 19.0334 3.28974 17.8873 2.14802C16.7456 1.0063 15.3599 0.648965 13.7954 0.570526C12.1831 0.479014 7.35038 0.479014 5.73802 0.570526C4.17796 0.644607 2.79221 1.00194 1.64613 2.14366C0.500048 3.28538 0.147073 4.67114 0.068634 6.23556C-0.022878 7.84791 -0.022878 12.6806 0.068634 14.293C0.142715 15.8574 0.500048 17.2431 1.64613 18.3849C2.79221 19.5266 4.1736 19.8839 5.73802 19.9624C7.35038 20.0539 12.1831 20.0539 13.7954 19.9624C15.3599 19.8883 16.7456 19.5309 17.8873 18.3849C19.0291 17.2431 19.3864 15.8574 19.4648 14.293C19.5563 12.6806 19.5563 7.85227 19.4648 6.23991ZM17.3818 16.023C17.0419 16.8771 16.3839 17.5351 15.5255 17.8794C14.2399 18.3892 11.1895 18.2716 9.76891 18.2716C8.3483 18.2716 5.29354 18.3849 4.01237 17.8794C3.15825 17.5395 2.50024 16.8815 2.15598 16.023C1.64613 14.7375 1.76379 11.6871 1.76379 10.2664C1.76379 8.84583 1.65049 5.79107 2.15598 4.5099C2.49588 3.65579 3.1539 2.99777 4.01237 2.65351C5.29789 2.14366 8.3483 2.26132 9.76891 2.26132C11.1895 2.26132 14.2443 2.14802 15.5255 2.65351C16.3796 2.99342 17.0376 3.65143 17.3818 4.5099C17.8917 5.79543 17.774 8.84583 17.774 10.2664C17.774 11.6871 17.8917 14.7418 17.3818 16.023Z" fill="#FFF1ED"/>
</svg>
