<svg width="20" height="21" viewBox="0 0 20 21" fill="none" xmlns="http://www.w3.org/2000/svg">
<path d="M4.46435 20.0311H0.414681V6.99286H4.46435V20.0311ZM2.43734 5.21431C1.14266 5.21431 0.0921021 4.14196 0.0921021 2.84728C0.0921021 1.55261 1.14266 0.502045 2.43734 0.502045C3.73201 0.502045 4.78257 1.55261 4.78257 2.84728C4.78257 4.14196 3.73201 5.21431 2.43734 5.21431ZM19.6212 20.0311H15.5803V13.6842C15.5803 12.1716 15.5497 10.2317 13.4748 10.2317C11.3693 10.2317 11.0467 11.8751 11.0467 13.5752V20.0311H7.00139V6.99286H10.8854V8.7714H10.9421C11.4826 7.74699 12.8035 6.66592 14.7738 6.66592C18.8714 6.66592 19.6256 9.36425 19.6256 12.869V20.0311H19.6212Z" fill="#FFF1ED"/>
</svg>
