<svg width="75" height="23" viewBox="0 0 75 23" fill="none" xmlns="http://www.w3.org/2000/svg">
<path fill-rule="evenodd" clip-rule="evenodd" d="M72.8784 1.77461L72.8784 1.77457C72.8624 1.74383 72.8459 1.71204 72.8459 1.68261L72.8323 1.65547C72.8168 1.61512 72.7987 1.57583 72.778 1.53787L72 0.0588135C71.9928 0.0416609 71.982 0.0262424 71.9684 0.0135824L71.9322 -0.0090332H71.8915H71.4708V2.6596H71.896V0.940819C71.8982 0.904667 71.8982 0.868417 71.896 0.832265C71.8981 0.793092 71.8981 0.753837 71.896 0.714664L72.7147 2.25252C72.7262 2.28351 72.7448 2.31139 72.769 2.33394C72.7988 2.35245 72.8334 2.36188 72.8685 2.36107H72.9363C72.9714 2.36188 73.006 2.35245 73.0358 2.33394C73.0667 2.31371 73.0917 2.2856 73.1082 2.25252L73.8816 0.719187V0.836788C73.8795 0.871431 73.8795 0.906176 73.8816 0.940819V2.6596H74.3068V0.0361978H73.8862H73.8455C73.8337 0.0326783 73.8211 0.0326783 73.8093 0.0361978C73.7962 0.0493626 73.7855 0.0646594 73.7776 0.0814289L73.0042 1.55596C72.981 1.59485 72.9613 1.63572 72.9454 1.67809C72.9406 1.68875 72.935 1.69972 72.9292 1.71091L72.9291 1.71095C72.9128 1.74251 72.8956 1.77588 72.8956 1.80926C72.8906 1.79799 72.8846 1.78638 72.8784 1.77461ZM71.0818 0.411616V0.00453651H69.0238V0.411616H69.8154V2.66412H70.2993V0.411616H71.0818ZM11.3135 3.72256V22.6156H8.46847V3.72256H0.471619V0.954416H19.3104V3.72256H11.3135ZM27.3208 9.63421C27.7839 10.0714 28.1801 10.5743 28.4968 11.1268L28.4877 11.1314C28.801 11.6765 29.037 12.2626 29.1888 12.8728H17.664C17.7965 12.2508 18.0368 11.6569 18.3741 11.1178C18.7229 10.5517 19.1631 10.0474 19.6767 9.62516C20.2185 9.18126 20.8298 8.82977 21.486 8.58485C22.2081 8.31129 22.9754 8.17626 23.7475 8.18682C24.4256 8.17921 25.0976 8.31485 25.7196 8.58485C26.3091 8.84108 26.8506 9.19595 27.3208 9.63421ZM18.4374 17.5768C18.007 16.8678 17.7325 16.0753 17.6323 15.2519L17.6413 15.2474H32.2103C32.2597 13.7757 32.0468 12.3069 31.5816 10.9097C31.2081 9.88568 30.6415 8.94287 29.9125 8.13254C29.1236 7.27409 28.1617 6.5927 27.0901 6.13333C26.0342 5.68673 24.8986 5.45899 23.7521 5.46391C22.5576 5.44555 21.3697 5.6448 20.2466 6.05191C19.2365 6.42721 18.3008 6.9785 17.483 7.68023C16.6138 8.43742 15.9259 9.38037 15.4702 10.4393C14.9926 11.5692 14.7554 12.7861 14.7737 14.0126C14.744 15.3079 14.9715 16.5962 15.4431 17.8029C15.8651 18.8405 16.4946 19.781 17.2931 20.5666C18.1432 21.4071 19.1801 22.0348 20.319 22.3984C21.4293 22.7591 22.5892 22.9438 23.7566 22.9457C24.44 22.9388 25.122 22.8798 25.7965 22.7693C26.5519 22.6517 27.2937 22.507 28.0128 22.3441C28.732 22.1813 29.415 22.0094 30.0527 21.8376C30.6905 21.6657 31.188 21.5209 31.5454 21.4124C31.738 21.3465 31.9343 21.2921 32.1334 21.2496L31.9434 18.5357C31.5951 18.6488 31.1111 18.798 30.4915 18.988C29.8718 19.178 29.1843 19.3634 28.4244 19.5489C27.6645 19.7343 26.873 19.8926 26.0407 20.0283C25.2665 20.159 24.483 20.2271 23.6978 20.2319C23.0276 20.2305 22.3604 20.1439 21.7121 19.974C21.0536 19.8039 20.4315 19.5158 19.8757 19.1237C19.2988 18.7081 18.81 18.1824 18.4374 17.5768ZM50.2213 20.0826C49.698 20.6706 49.0987 21.1863 48.4392 21.6159C47.7515 22.0593 46.9993 22.3935 46.2093 22.6065C45.2837 22.8481 44.3298 22.9637 43.3733 22.9503C42.2222 22.9506 41.0774 22.7799 39.9764 22.4437C38.8943 22.1205 37.8851 21.5906 37.0047 20.8832C36.1113 20.1477 35.3955 19.22 34.9105 18.1693C34.3516 16.9265 34.0796 15.5739 34.1145 14.2116C34.0818 12.8715 34.3589 11.5418 34.9241 10.3263C35.4296 9.2807 36.1529 8.35537 37.0455 7.6124C37.9233 6.89176 38.9325 6.34801 40.0171 6.01122C41.1025 5.66642 42.2345 5.49097 43.3733 5.49106C44.1924 5.48336 45.0099 5.56526 45.8112 5.73531C46.5176 5.89045 47.1994 6.14156 47.8376 6.48162C48.497 6.83726 49.1055 7.27997 49.6469 7.79785C50.2641 8.39416 50.8314 9.04012 51.343 9.72921L48.9051 11.154C48.5639 10.6718 48.1842 10.218 47.7698 9.79706C47.4127 9.4411 47.0077 9.13663 46.5666 8.89244C46.1242 8.65101 45.6487 8.47576 45.1554 8.37228C44.5701 8.25667 43.9744 8.20211 43.3778 8.20945C42.5553 8.20607 41.7373 8.33121 40.9534 8.58034C40.1975 8.81505 39.4951 9.1962 38.8864 9.70207C38.2693 10.2143 37.7735 10.8569 37.4344 11.5837C37.0629 12.4137 36.8806 13.316 36.9007 14.2252C36.8765 15.1581 37.0587 16.0848 37.4344 16.939C37.7646 17.6625 38.2512 18.3036 38.8592 18.8161C39.4642 19.3147 40.1668 19.6814 40.9218 19.8926C41.7179 20.1257 42.5438 20.2415 43.3733 20.2364C44.0416 20.2454 44.7084 20.1725 45.3589 20.0193C45.9028 19.8848 46.4209 19.6617 46.8923 19.3589C47.3518 19.059 47.7661 18.695 48.1226 18.2779C48.5156 17.8213 48.874 17.336 49.1945 16.826L51.723 18.0834C51.2734 18.7852 50.7714 19.452 50.2213 20.0781V20.0826ZM66.2376 11.2489V22.6065H69.0238V11.2263C69.0385 10.4485 68.9176 9.67399 68.6665 8.93764C68.4217 8.27683 68.0394 7.67556 67.5448 7.17362C66.9877 6.58125 66.291 6.13804 65.5184 5.88454C64.6534 5.59942 63.7469 5.46031 62.8362 5.47294C62.1427 5.47444 61.4508 5.53955 60.7692 5.66743C60.0428 5.80565 59.3322 6.01627 58.6478 6.29614C58.2498 6.45897 57.8518 6.6399 57.4583 6.82987C57.0487 7.02897 56.6514 7.25251 56.2687 7.49929V0.44324H53.4779V22.6065H56.2687V10.7152C56.5093 10.5179 56.7616 10.3351 57.024 10.1679C57.0824 10.1303 57.1406 10.092 57.199 10.0536C57.4211 9.9076 57.6463 9.75955 57.897 9.63419C58.0043 9.58055 58.109 9.52743 58.2119 9.47518C58.4129 9.37322 58.6072 9.27459 58.8016 9.18188C59.0956 9.04167 59.3625 8.92859 59.5977 8.83813C60.6181 8.43409 61.7027 8.21655 62.8 8.19585C63.4149 8.17035 64.029 8.26246 64.6093 8.46723C64.9685 8.60462 65.2984 8.80874 65.5818 9.0688C65.8329 9.31844 66.0125 9.63082 66.1019 9.97343C66.1991 10.3915 66.2447 10.8198 66.2376 11.2489Z" fill="black"/>
</svg>
