<svg width="24" height="24" viewBox="0 0 24 24" fill="none" xmlns="http://www.w3.org/2000/svg">
<path fill-rule="evenodd" clip-rule="evenodd" d="M10.8301 6.37812C10.8301 5.47914 11.5592 4.75 12.4582 4.75C13.3572 4.75 14.0863 5.47914 14.0863 6.37812V8.14355H10.8301V6.37812ZM9.33008 9.64355V11.5525C9.33008 11.9667 9.66586 12.3025 10.0801 12.3025C10.4943 12.3025 10.8301 11.9667 10.8301 11.5525V9.64355H14.0863V11.5492C14.0863 11.9634 14.4221 12.2992 14.8363 12.2992C15.2505 12.2992 15.5863 11.9634 15.5863 11.5492V9.64355H17.0782L18.0897 19.2501H6.83312L7.84464 9.64355H9.33008ZM9.33008 8.14355V6.37812C9.33008 4.65071 10.7308 3.25 12.4582 3.25C14.1856 3.25 15.5863 4.65071 15.5863 6.37812V8.14355H17.7534C18.1372 8.14355 18.4591 8.43332 18.4993 8.81502L19.6687 19.9216C19.691 20.133 19.6225 20.3439 19.4802 20.5019C19.338 20.6599 19.1354 20.7501 18.9228 20.7501H6C5.78742 20.7501 5.58483 20.6599 5.4426 20.5019C5.30037 20.3439 5.23187 20.133 5.25413 19.9216L6.42359 8.81502C6.46378 8.43332 6.78565 8.14355 7.16946 8.14355H9.33008Z" fill="#3B3B3B"/>
</svg>
