<svg width="21" height="17" viewBox="0 0 21 17" fill="none" xmlns="http://www.w3.org/2000/svg">
<path d="M18.2489 4.28689C18.2613 4.4604 18.2613 4.63395 18.2613 4.80746C18.2613 10.0998 14.2332 16.1979 6.87091 16.1979C4.60273 16.1979 2.4957 15.541 0.723297 14.4007C1.04556 14.4379 1.35539 14.4503 1.69005 14.4503C3.56157 14.4503 5.28442 13.8182 6.6602 12.7399C4.90019 12.7027 3.42526 11.55 2.91708 9.96352C3.16499 10.0007 3.41286 10.0255 3.67317 10.0255C4.03259 10.0255 4.39205 9.97588 4.72668 9.88916C2.89232 9.5173 1.5165 7.90605 1.5165 5.96013V5.91057C2.04944 6.20804 2.66921 6.39395 3.32607 6.41871C2.24775 5.69982 1.5413 4.4728 1.5413 3.08462C1.5413 2.34097 1.73958 1.65928 2.08664 1.06435C4.05735 3.49364 7.01962 5.08009 10.3413 5.25364C10.2793 4.95618 10.2421 4.64635 10.2421 4.33648C10.2421 2.13026 12.0269 0.333099 14.2455 0.333099C15.3982 0.333099 16.4393 0.816478 17.1706 1.59732C18.0753 1.42381 18.9429 1.08915 19.7114 0.630566C19.4139 1.56016 18.7818 2.34101 17.9514 2.83675C18.7571 2.75003 19.5379 2.52688 20.2568 2.21706C19.7115 3.01026 19.0298 3.71671 18.2489 4.28689Z" fill="#FFF1ED"/>
</svg>
